<svg id="visual" viewBox="0 0 900 600" width="900" height="600" xmlns="http://www.w3.org/2000/svg" xmlns:xlink="http://www.w3.org/1999/xlink" version="1.1"><rect x="0" y="0" width="900" height="600" fill="#161e24"></rect><path d="M0 413L21.5 418.2C43 423.3 86 433.7 128.8 427C171.7 420.3 214.3 396.7 257.2 394.8C300 393 343 413 385.8 416.5C428.7 420 471.3 407 514.2 408.8C557 410.7 600 427.3 642.8 432C685.7 436.7 728.3 429.3 771.2 413.7C814 398 857 374 878.5 362L900 350L900 601L878.5 601C857 601 814 601 771.2 601C728.3 601 685.7 601 642.8 601C600 601 557 601 514.2 601C471.3 601 428.7 601 385.8 601C343 601 300 601 257.2 601C214.3 601 171.7 601 128.8 601C86 601 43 601 21.5 601L0 601Z" fill="#fa7268"></path><path d="M0 416L21.5 422.8C43 429.7 86 443.3 128.8 453C171.7 462.7 214.3 468.3 257.2 468.3C300 468.3 343 462.7 385.8 461.8C428.7 461 471.3 465 514.2 457.7C557 450.3 600 431.7 642.8 421.5C685.7 411.3 728.3 409.7 771.2 407.3C814 405 857 402 878.5 400.5L900 399L900 601L878.5 601C857 601 814 601 771.2 601C728.3 601 685.7 601 642.8 601C600 601 557 601 514.2 601C471.3 601 428.7 601 385.8 601C343 601 300 601 257.2 601C214.3 601 171.7 601 128.8 601C86 601 43 601 21.5 601L0 601Z" fill="#ef5f67"></path><path d="M0 492L21.5 486C43 480 86 468 128.8 468C171.7 468 214.3 480 257.2 485.3C300 490.7 343 489.3 385.8 480.2C428.7 471 471.3 454 514.2 452.8C557 451.7 600 466.3 642.8 471.2C685.7 476 728.3 471 771.2 475.8C814 480.7 857 495.3 878.5 502.7L900 510L900 601L878.5 601C857 601 814 601 771.2 601C728.3 601 685.7 601 642.8 601C600 601 557 601 514.2 601C471.3 601 428.7 601 385.8 601C343 601 300 601 257.2 601C214.3 601 171.7 601 128.8 601C86 601 43 601 21.5 601L0 601Z" fill="#e34c67"></path><path d="M0 499L21.5 501.3C43 503.7 86 508.3 128.8 513C171.7 517.7 214.3 522.3 257.2 518.2C300 514 343 501 385.8 495.2C428.7 489.3 471.3 490.7 514.2 496.7C557 502.7 600 513.3 642.8 511.5C685.7 509.7 728.3 495.3 771.2 497.5C814 499.7 857 518.3 878.5 527.7L900 537L900 601L878.5 601C857 601 814 601 771.2 601C728.3 601 685.7 601 642.8 601C600 601 557 601 514.2 601C471.3 601 428.7 601 385.8 601C343 601 300 601 257.2 601C214.3 601 171.7 601 128.8 601C86 601 43 601 21.5 601L0 601Z" fill="#d53867"></path><path d="M0 562L21.5 557.3C43 552.7 86 543.3 128.8 539C171.7 534.7 214.3 535.3 257.2 539.7C300 544 343 552 385.8 552.5C428.7 553 471.3 546 514.2 546.7C557 547.3 600 555.7 642.8 557.2C685.7 558.7 728.3 553.3 771.2 550.8C814 548.3 857 548.7 878.5 548.8L900 549L900 601L878.5 601C857 601 814 601 771.2 601C728.3 601 685.7 601 642.8 601C600 601 557 601 514.2 601C471.3 601 428.7 601 385.8 601C343 601 300 601 257.2 601C214.3 601 171.7 601 128.8 601C86 601 43 601 21.5 601L0 601Z" fill="#c62368"></path></svg>