<svg id="visual" viewBox="0 0 900 600" width="900" height="600" xmlns="http://www.w3.org/2000/svg" xmlns:xlink="http://www.w3.org/1999/xlink" version="1.1"><rect x="0" y="0" width="900" height="600" fill="#001220"></rect><defs><linearGradient id="grad1_0" x1="33.3%" y1="100%" x2="100%" y2="0%"><stop offset="20%" stop-color="#099ba4" stop-opacity="1"></stop><stop offset="80%" stop-color="#099ba4" stop-opacity="1"></stop></linearGradient></defs><defs><linearGradient id="grad1_1" x1="33.3%" y1="100%" x2="100%" y2="0%"><stop offset="20%" stop-color="#099ba4" stop-opacity="1"></stop><stop offset="80%" stop-color="#015166" stop-opacity="1"></stop></linearGradient></defs><defs><linearGradient id="grad1_2" x1="33.3%" y1="100%" x2="100%" y2="0%"><stop offset="20%" stop-color="#001220" stop-opacity="1"></stop><stop offset="80%" stop-color="#015166" stop-opacity="1"></stop></linearGradient></defs><defs><linearGradient id="grad2_0" x1="0%" y1="100%" x2="66.7%" y2="0%"><stop offset="20%" stop-color="#099ba4" stop-opacity="1"></stop><stop offset="80%" stop-color="#099ba4" stop-opacity="1"></stop></linearGradient></defs><defs><linearGradient id="grad2_1" x1="0%" y1="100%" x2="66.7%" y2="0%"><stop offset="20%" stop-color="#015166" stop-opacity="1"></stop><stop offset="80%" stop-color="#099ba4" stop-opacity="1"></stop></linearGradient></defs><defs><linearGradient id="grad2_2" x1="0%" y1="100%" x2="66.7%" y2="0%"><stop offset="20%" stop-color="#015166" stop-opacity="1"></stop><stop offset="80%" stop-color="#001220" stop-opacity="1"></stop></linearGradient></defs><g transform="translate(900, 600)"><path d="M-361 0C-387.4 -58.1 -413.8 -116.2 -399.7 -165.6C-385.7 -215 -331.2 -255.6 -280.7 -280.7C-230.3 -305.8 -183.9 -315.3 -137.8 -332.6C-91.7 -349.9 -45.8 -374.9 0 -400L0 0Z" fill="#063043"></path><path d="M-240.7 0C-258.3 -38.7 -275.9 -77.5 -266.5 -110.4C-257.1 -143.3 -220.8 -170.4 -187.1 -187.1C-153.5 -203.9 -122.6 -210.2 -91.8 -221.7C-61.1 -233.3 -30.6 -250 0 -266.7L0 0Z" fill="#007587"></path><path d="M-120.3 0C-129.1 -19.4 -137.9 -38.7 -133.2 -55.2C-128.6 -71.7 -110.4 -85.2 -93.6 -93.6C-76.8 -101.9 -61.3 -105.1 -45.9 -110.9C-30.6 -116.6 -15.3 -125 0 -133.3L0 0Z" fill="#099ba4"></path></g><g transform="translate(0, 0)"><path d="M432.7 0C412.1 55.2 391.5 110.4 359.4 148.9C327.3 187.3 283.8 209 252.4 252.4C221.1 295.9 201.9 361.2 161.9 390.8C121.8 420.4 60.9 414.2 0 408L0 0Z" fill="#063043"></path><path d="M288.4 0C274.7 36.8 261 73.6 239.6 99.2C218.2 124.9 189.2 139.3 168.3 168.3C147.4 197.3 134.6 240.8 107.9 260.5C81.2 280.2 40.6 276.1 0 272L0 0Z" fill="#007587"></path><path d="M144.2 0C137.4 18.4 130.5 36.8 119.8 49.6C109.1 62.4 94.6 69.7 84.1 84.1C73.7 98.6 67.3 120.4 54 130.3C40.6 140.1 20.3 138.1 0 136L0 0Z" fill="#099ba4"></path></g></svg>